<svg width="23" height="23" viewBox="0 0 23 23" fill="none" xmlns="http://www.w3.org/2000/svg">
<path fill-rule="evenodd" clip-rule="evenodd" d="M6.20276 9.75409C7.18777 9.34608 8.27165 9.23933 9.31732 9.44733C10.363 9.65533 11.3235 10.1687 12.0774 10.9226C12.8313 11.6765 13.3447 12.637 13.5527 13.6827C13.7607 14.7284 13.654 15.8123 13.246 16.7973C12.8379 17.7823 12.147 18.6242 11.2605 19.2165C10.3741 19.8088 9.33183 20.125 8.26567 20.125H1.79692C1.49167 20.125 1.21972 19.9322 1.11868 19.6442C1.01825 19.3578 1.10847 19.0395 1.34365 18.8484L1.34844 18.8444C1.35492 18.8388 1.36741 18.8279 1.38505 18.8115C1.42037 18.7787 1.47617 18.7243 1.54585 18.6476C1.68529 18.4942 1.87929 18.2529 2.07584 17.9188C2.46649 17.2547 2.87504 16.2113 2.87504 14.7344C2.87504 13.6682 3.1912 12.626 3.78352 11.7395C4.37585 10.853 5.21775 10.1621 6.20276 9.75409ZM9.03688 10.8572C8.27005 10.7047 7.47521 10.783 6.75287 11.0822C6.03053 11.3814 5.41314 11.888 4.97876 12.5381C4.54439 13.1882 4.31254 13.9525 4.31254 14.7344C4.31254 16.4918 3.82265 17.7844 3.31487 18.6476C3.30699 18.661 3.2991 18.6743 3.29122 18.6875H8.26567C9.04752 18.6875 9.81182 18.4557 10.4619 18.0213C11.112 17.5869 11.6187 16.9695 11.9179 16.2472C12.2171 15.5248 12.2954 14.73 12.1428 13.9632C11.9903 13.1963 11.6138 12.4919 11.0609 11.9391C10.5081 11.3862 9.80371 11.0097 9.03688 10.8572Z" fill="black"/>
<path fill-rule="evenodd" clip-rule="evenodd" d="M14.7804 6.27539C13.0199 7.85152 11.5258 9.72139 10.6759 10.8679C10.4395 11.1868 9.98937 11.2536 9.67049 11.0172C9.3516 10.7808 9.28472 10.3307 9.52112 10.0118C10.3962 8.83134 11.9568 6.87387 13.8215 5.2044C15.6538 3.56395 17.9267 2.06641 20.2149 2.06641C20.6119 2.06641 20.9337 2.3882 20.9337 2.78516C20.9337 5.07336 19.4361 7.34623 17.7957 9.17854C16.1262 11.0433 14.1687 12.6039 12.9883 13.479C12.6694 13.7154 12.2192 13.6485 11.9828 13.3296C11.7464 13.0107 11.8133 12.5606 12.1322 12.3242C13.2787 11.4743 15.1486 9.98017 16.7247 8.2197C18.0858 6.69945 19.1313 5.08577 19.4178 3.58226C17.9143 3.86877 16.3006 4.91432 14.7804 6.27539Z" fill="black"/>
<path fill-rule="evenodd" clip-rule="evenodd" d="M11.3232 7.78659C11.5183 7.44089 11.9567 7.3188 12.3024 7.5139C13.6338 8.26529 14.7347 9.36612 15.4861 10.6975C15.6812 11.0432 15.5591 11.4816 15.2134 11.6767C14.8677 11.8718 14.4293 11.7497 14.2342 11.404C13.6115 10.3007 12.6992 9.38847 11.5959 8.76579C11.2502 8.57069 11.1281 8.13229 11.3232 7.78659Z" fill="black"/>
</svg>
