<svg width="285" height="285" viewBox="0 0 285 285" fill="none" xmlns="http://www.w3.org/2000/svg">
<path fill-rule="evenodd" clip-rule="evenodd" d="M199.88 221H208.685C207.301 215.187 205.24 209.652 202.596 204.492C247.456 152.228 268.474 113.392 265.071 89.0372C263.817 80.0607 259.374 73.1 251.867 68.3505C247.304 65.4636 242.511 64 237.621 64C213.44 64 188.256 99.6093 162.745 169.849C156.261 167.707 149.364 166.547 142.213 166.547C135.063 166.547 128.166 167.707 121.681 169.849C96.1705 99.6093 70.9865 64 46.8052 64C41.9152 64 37.1225 65.4636 32.5599 68.3505C25.0525 73.1006 20.6103 80.0607 19.3559 89.0378C15.9525 113.392 36.971 152.228 81.8305 204.492C79.1863 209.652 77.1251 215.187 75.7412 221H84.5365C91.8812 194.846 115.256 175.393 142.213 175.393C169.206 175.393 192.532 194.923 199.88 221ZM86.8741 127.564C94.3034 140.062 101.949 156.073 109.63 175.195C110.996 174.417 112.388 173.685 113.804 173.006C101.541 139.24 89.3384 113.529 77.5103 96.5428C66.5603 80.8177 56.2295 72.8446 46.8052 72.8446C43.4258 72.8446 40.1909 73.852 36.917 75.924C31.5983 79.289 28.5838 83.9981 27.7003 90.3201C25.6363 105.091 34.3039 135.483 86.4567 196.656C87.3595 195.334 88.3056 194.047 89.2897 192.794C76.1093 176.633 65.5826 161.933 57.9816 149.062C51.9618 138.867 42.0869 119.927 43.5896 107.617C44.0926 103.502 45.7767 100.802 49.223 98.5873C51.6348 97.0372 53.8557 96.4193 56.2065 96.641C59.5415 96.9536 66.6716 99.4656 76.9548 112.762C78.4216 114.659 78.1444 117.444 76.3357 118.983C74.5285 120.521 71.8721 120.23 70.4048 118.333C60.9414 106.097 55.6725 105.471 55.4525 105.45C55.2502 105.43 54.7836 105.387 53.6298 106.128C52.2856 106.992 52.1229 107.368 51.9554 108.74C50.9616 116.876 58.1207 132.498 65.1524 144.405C72.4083 156.692 82.4625 170.762 95.0687 186.273C97.3671 183.984 99.8116 181.866 102.383 179.935C94.6989 160.662 87.0807 144.631 79.7172 132.243C78.4853 130.17 79.0884 127.442 81.0647 126.151C83.0409 124.857 85.6417 125.491 86.8741 127.564ZM206.697 128.966C198.718 141.762 190.43 158.898 182.043 179.934C184.615 181.866 187.06 183.984 189.359 186.271C201.965 170.759 212.019 156.69 219.275 144.403C226.306 132.496 233.466 116.874 232.472 108.738C232.305 107.366 232.142 106.99 230.798 106.127C230.398 105.87 229.651 105.439 229.145 105.439C229.085 105.439 229.028 105.444 228.976 105.448C228.645 105.479 220.726 106.468 206.697 128.966ZM195.138 192.792C196.121 194.046 197.068 195.332 197.971 196.655C250.122 135.483 258.79 105.091 256.727 90.3207C255.843 83.9987 252.828 79.2896 247.51 75.9246C244.281 73.8812 240.954 72.8452 237.622 72.8452C228.197 72.8452 217.866 80.8177 206.917 96.5406C195.089 113.526 182.887 139.237 170.623 173.006C172.039 173.684 173.43 174.416 174.796 175.194C183.203 154.262 191.551 137.096 199.64 124.125C213.932 101.205 223.682 97.0664 228.222 96.6388C228.54 96.6085 228.843 96.5939 229.146 96.5939C231.137 96.5939 233.12 97.2454 235.205 98.5856C238.651 100.799 240.336 103.5 240.838 107.615C241.483 112.899 240.471 125.309 226.446 149.06C218.845 161.931 208.318 176.632 195.138 192.792Z" fill="black"/>
</svg>
