<svg width="24" height="25" viewBox="0 0 24 25" fill="none" xmlns="http://www.w3.org/2000/svg">
<path d="M1 4.48485H7.6M7.6 4.48485V2.53333C7.6 1.6865 8.30356 1 9.17143 1H14.8286C15.6965 1 16.4 1.6865 16.4 2.53333V4.48485M7.6 4.48485H16.4M23 4.48485H16.4M3.2 7.27273V18.4242C3.2 21.0526 3.2 22.3668 4.05915 23.1835C4.91831 24 6.30109 24 9.06661 24H14.9334C17.6989 24 19.0816 24 19.9409 23.1835C20.8 22.3668 20.8 21.0526 20.8 18.4242V7.27273M7.6 10.0606V18.4242M12 10.0606V18.4242M16.4 10.0606V18.4242" stroke="black" stroke-linecap="round" stroke-linejoin="round"/>
</svg>
