<svg width="24" height="24" viewBox="0 0 24 24" fill="none" xmlns="http://www.w3.org/2000/svg">
<path d="M2 10L10.7506 2.99954C11.481 2.41519 12.519 2.41519 13.2494 2.99954L22 10" stroke="#1B1B1B" stroke-width="1.5" stroke-linecap="round" stroke-linejoin="round"/>
<path d="M9.47763 4.04939L5.47763 7.29939C4.75138 7.88947 4.38825 8.18451 4.19412 8.59236C4 9.00021 4 9.46809 4 10.4039V14C4 17.7712 4 19.6569 5.17157 20.8284C6.34315 22 8.22876 22 12 22C15.7712 22 17.6569 22 18.8284 20.8284C20 19.6569 20 17.7712 20 14V10.4039C20 9.46809 20 9.00021 19.8059 8.59236C19.6117 8.18451 19.2486 7.88947 18.5224 7.29939L14.5224 4.04939C13.3142 3.06773 12.7101 2.5769 12 2.5769C11.2899 2.5769 10.6858 3.06773 9.47763 4.04939Z" stroke="#1B1B1B" stroke-width="1.5"/>
<path d="M9.75 16.25H14.25" stroke="#1B1B1B" stroke-width="1.5" stroke-linecap="round"/>
</svg>
