<svg width="28" height="23" viewBox="0 0 28 23" fill="none" xmlns="http://www.w3.org/2000/svg">
<path d="M13.5777 3.71768L14 4.38395L14.4223 3.71768C15.6668 1.75425 17.8619 0.5 20.3636 0.5C24.2856 0.5 27.5 3.72427 27.5 7.66667C27.5 9.43349 26.6908 11.2468 25.4087 13.002C24.1305 14.752 22.4152 16.3987 20.6826 17.822C18.9525 19.2432 17.2198 20.4294 15.9183 21.2609C15.2681 21.6764 14.7266 22.0025 14.3485 22.2243C14.2097 22.3058 14.093 22.3732 14.001 22.4257C13.9089 22.3727 13.7919 22.3047 13.6528 22.2225C13.2747 21.999 12.7332 21.6706 12.0828 21.2527C10.7812 20.4161 9.0483 19.2238 7.3179 17.7984C5.58503 16.3711 3.86953 14.7221 2.59103 12.9747C1.3085 11.2218 0.5 9.4167 0.5 7.66667C0.5 3.72427 3.71437 0.5 7.63636 0.5C10.1381 0.5 12.3332 1.75425 13.5777 3.71768Z" fill="white" stroke="black"/>
</svg>
