<svg width="32" height="32" viewBox="0 0 32 32" fill="none" xmlns="http://www.w3.org/2000/svg">
<path fill-rule="evenodd" clip-rule="evenodd" d="M10.7304 11.7304C11.1209 11.3399 11.7541 11.3399 12.1446 11.7304L20.6321 20.2179C21.0226 20.6084 21.0226 21.2416 20.6321 21.6321C20.2416 22.0226 19.6084 22.0226 19.2179 21.6321L10.7304 13.1446C10.3399 12.7541 10.3399 12.1209 10.7304 11.7304Z" fill="black"/>
<path fill-rule="evenodd" clip-rule="evenodd" d="M19.9249 5.78577C19.7944 5.78577 19.6652 5.81164 19.5447 5.8619C19.4243 5.91215 19.3149 5.98579 19.2231 6.07856L19.2195 6.08217L5.07844 20.2233C4.98568 20.3151 4.91203 20.4244 4.86178 20.5448C4.81152 20.6653 4.78564 20.7945 4.78564 20.9251C4.78564 21.0556 4.81152 21.1848 4.86178 21.3053C4.91203 21.4257 4.98567 21.535 5.07843 21.6269L5.08205 21.6304L9.42665 25.9751H13.461L26.2892 13.1591C26.4756 12.9677 26.58 12.7111 26.58 12.4438C26.58 12.1766 26.4757 11.9201 26.2894 11.7287L20.6267 6.07857C20.5349 5.98581 20.4256 5.91215 20.3051 5.8619C20.1847 5.81164 20.0555 5.78577 19.9249 5.78577ZM26.9999 27.9751C27.5522 27.9751 27.9999 27.5273 27.9999 26.9751C27.9999 26.4228 27.5522 25.9751 26.9999 25.9751H16.2908L27.7067 14.57L27.7135 14.5632C28.2689 13.9975 28.58 13.2365 28.58 12.4438C28.58 11.6511 28.2689 10.8901 27.7135 10.3244L22.0481 4.67155L22.0456 4.66904C21.7683 4.38958 21.4386 4.16768 21.0752 4.01609C20.7108 3.86405 20.3198 3.78577 19.9249 3.78577C19.5301 3.78577 19.1391 3.86405 18.7747 4.01609C18.4111 4.16777 18.0811 4.38985 17.8037 4.66954L17.8017 4.67155L3.67143 18.8019L3.66942 18.8039C3.38973 19.0812 3.16765 19.4112 3.01597 19.7748C2.86393 20.1392 2.78564 20.5302 2.78564 20.9251C2.78564 21.3199 2.86393 21.7109 3.01597 22.0753C3.16762 22.4388 3.38966 22.7688 3.66929 23.0461L3.67143 23.0482L8.30532 27.6822C8.49286 27.8697 8.74721 27.9751 9.01243 27.9751H26.9999Z" fill="black"/>
</svg>
