<svg width="32" height="32" viewBox="0 0 32 32" fill="none" xmlns="http://www.w3.org/2000/svg">
<path fill-rule="evenodd" clip-rule="evenodd" d="M4.58579 4.58579C4.96086 4.21071 5.46957 4 6 4H9C9.55228 4 10 4.44772 10 5C10 5.55228 9.55228 6 9 6L6 6L6 9C6 9.55228 5.55228 10 5 10C4.44772 10 4 9.55228 4 9V6C4 5.46957 4.21071 4.96086 4.58579 4.58579ZM13 5C13 4.44772 13.4477 4 14 4H18C18.5523 4 19 4.44772 19 5C19 5.55228 18.5523 6 18 6H14C13.4477 6 13 5.55228 13 5ZM22 5C22 4.44772 22.4477 4 23 4H26C26.5304 4 27.0391 4.21071 27.4142 4.58579C27.7893 4.96086 28 5.46957 28 6V9C28 9.55228 27.5523 10 27 10C26.4477 10 26 9.55228 26 9V6H23C22.4477 6 22 5.55228 22 5ZM5 13C5.55228 13 6 13.4477 6 14V18C6 18.5523 5.55228 19 5 19C4.44772 19 4 18.5523 4 18V14C4 13.4477 4.44772 13 5 13ZM27 13C27.5523 13 28 13.4477 28 14V18C28 18.5523 27.5523 19 27 19C26.4477 19 26 18.5523 26 18V14C26 13.4477 26.4477 13 27 13ZM5 22C5.55228 22 6 22.4477 6 23V26H9C9.55228 26 10 26.4477 10 27C10 27.5523 9.55228 28 9 28H6C5.46957 28 4.96086 27.7893 4.58579 27.4142C4.21071 27.0391 4 26.5304 4 26V23C4 22.4477 4.44772 22 5 22ZM27 22C27.5523 22 28 22.4477 28 23V26C28 26.5304 27.7893 27.0391 27.4142 27.4142C27.0391 27.7893 26.5304 28 26 28H23C22.4477 28 22 27.5523 22 27C22 26.4477 22.4477 26 23 26H26V23C26 22.4477 26.4477 22 27 22ZM13 27C13 26.4477 13.4477 26 14 26H18C18.5523 26 19 26.4477 19 27C19 27.5523 18.5523 28 18 28H14C13.4477 28 13 27.5523 13 27Z" fill="black"/>
</svg>
